<svg xmlns="http://www.w3.org/2000/svg" xmlns:xlink="http://www.w3.org/1999/xlink" width="2048" height="1600" viewBox="0 0 2048 1600"><defs><clipPath id="frameclip"><rect width="256" height="320"/></clipPath><linearGradient id="metal" x1="0" y1="0" x2="1" y2="1"><stop stop-color="#606975"/><stop offset=".5" stop-color="#2a3038"/><stop offset="1" stop-color="#101319"/></linearGradient><filter id="glow"><feGaussianBlur stdDeviation="5" result="b"/><feMerge><feMergeNode in="b"/><feMergeNode in="SourceGraphic"/></feMerge></filter></defs><symbol id="s" viewBox="0 0 256 320"><g stroke="#090b10" stroke-width="8" stroke-linejoin="round"><path d="M128 25L166 74L155 126L101 126L90 74Z" fill="url(#metal)"/><circle cx="128" cy="84" r="18" fill="#ff174f" filter="url(#glow)"/><path d="M78 126L178 126L212 220L183 294L73 294L44 220Z" fill="#23242d"/><path d="M68 146C18 120 19 72 8 48M188 146C238 120 237 72 248 48M63 175C14 188 5 230 7 266M193 175C242 188 251 230 249 266" fill="none" stroke="url(#metal)" stroke-width="20"/><path d="M100 292L82 318M156 292L174 318" stroke="#353b45" stroke-width="26"/></g></symbol><g transform="translate(0 0)" clip-path="url(#frameclip)"><g transform="translate(0 0)"><use xlink:href="#s" width="256" height="320"/></g></g><g transform="translate(256 0)" clip-path="url(#frameclip)"><g transform="translate(0 0)"><use xlink:href="#s" width="256" height="320"/></g></g><g transform="translate(512 0)" clip-path="url(#frameclip)"><g transform="translate(0 0)"><use xlink:href="#s" width="256" height="320"/></g></g><g transform="translate(768 0)" clip-path="url(#frameclip)"><g transform="translate(0 0)"><use xlink:href="#s" width="256" height="320"/></g></g><g transform="translate(1024 0)" clip-path="url(#frameclip)"><g transform="translate(0 0)"><use xlink:href="#s" width="256" height="320"/></g></g><g transform="translate(1280 0)" clip-path="url(#frameclip)"><g transform="translate(0 0) scale(-1 1) translate(-256 0)"><use xlink:href="#s" width="256" height="320"/></g></g><g transform="translate(1536 0)" clip-path="url(#frameclip)"><g transform="translate(0 0) scale(-1 1) translate(-256 0)"><use xlink:href="#s" width="256" height="320"/></g></g><g transform="translate(1792 0)" clip-path="url(#frameclip)"><g transform="translate(0 0) scale(-1 1) translate(-256 0)"><use xlink:href="#s" width="256" height="320"/></g></g><g transform="translate(0 320)" clip-path="url(#frameclip)"><g transform="translate(0 -8)"><use xlink:href="#s" width="256" height="320"/></g></g><g transform="translate(256 320)" clip-path="url(#frameclip)"><g transform="translate(0 8)"><use xlink:href="#s" width="256" height="320"/></g></g><g transform="translate(512 320)" clip-path="url(#frameclip)"><g transform="translate(0 -8)"><use xlink:href="#s" width="256" height="320"/></g></g><g transform="translate(768 320)" clip-path="url(#frameclip)"><g transform="translate(0 8)"><use xlink:href="#s" width="256" height="320"/></g></g><g transform="translate(1024 320)" clip-path="url(#frameclip)"><g transform="translate(0 -8)"><use xlink:href="#s" width="256" height="320"/></g></g><g transform="translate(1280 320)" clip-path="url(#frameclip)"><g transform="translate(0 8) scale(-1 1) translate(-256 0)"><use xlink:href="#s" width="256" height="320"/></g></g><g transform="translate(1536 320)" clip-path="url(#frameclip)"><g transform="translate(0 -8) scale(-1 1) translate(-256 0)"><use xlink:href="#s" width="256" height="320"/></g></g><g transform="translate(1792 320)" clip-path="url(#frameclip)"><g transform="translate(0 8) scale(-1 1) translate(-256 0)"><use xlink:href="#s" width="256" height="320"/></g></g><g transform="translate(0 640)" clip-path="url(#frameclip)"><g transform="translate(0 0) translate(0 -4) scale(1.04) translate(-5 -6)"><use xlink:href="#s" width="256" height="320"/></g></g><g transform="translate(256 640)" clip-path="url(#frameclip)"><g transform="translate(0 0) translate(0 -4) scale(1.04) translate(-5 -6)"><use xlink:href="#s" width="256" height="320"/></g></g><g transform="translate(512 640)" clip-path="url(#frameclip)"><g transform="translate(0 0) translate(0 -4) scale(1.04) translate(-5 -6)"><use xlink:href="#s" width="256" height="320"/></g></g><g transform="translate(768 640)" clip-path="url(#frameclip)"><g transform="translate(0 0) translate(0 -4) scale(1.04) translate(-5 -6)"><use xlink:href="#s" width="256" height="320"/></g></g><g transform="translate(1024 640)" clip-path="url(#frameclip)"><g transform="translate(0 0) translate(0 -4) scale(1.04) translate(-5 -6)"><use xlink:href="#s" width="256" height="320"/></g></g><g transform="translate(1280 640)" clip-path="url(#frameclip)"><g transform="translate(0 0) scale(-1 1) translate(-256 0) translate(0 -4) scale(1.04) translate(-5 -6)"><use xlink:href="#s" width="256" height="320"/></g></g><g transform="translate(1536 640)" clip-path="url(#frameclip)"><g transform="translate(0 0) scale(-1 1) translate(-256 0) translate(0 -4) scale(1.04) translate(-5 -6)"><use xlink:href="#s" width="256" height="320"/></g></g><g transform="translate(1792 640)" clip-path="url(#frameclip)"><g transform="translate(0 0) scale(-1 1) translate(-256 0) translate(0 -4) scale(1.04) translate(-5 -6)"><use xlink:href="#s" width="256" height="320"/></g></g><g transform="translate(0 960)" clip-path="url(#frameclip)"><g transform="translate(0 0) translate(-6 2) rotate(-5 128 160)"><use xlink:href="#s" width="256" height="320"/></g></g><g transform="translate(256 960)" clip-path="url(#frameclip)"><g transform="translate(0 0) translate(-6 2) rotate(-5 128 160)"><use xlink:href="#s" width="256" height="320"/></g></g><g transform="translate(512 960)" clip-path="url(#frameclip)"><g transform="translate(0 0) translate(-6 2) rotate(-5 128 160)"><use xlink:href="#s" width="256" height="320"/></g></g><g transform="translate(768 960)" clip-path="url(#frameclip)"><g transform="translate(0 0) translate(-6 2) rotate(-5 128 160)"><use xlink:href="#s" width="256" height="320"/></g></g><g transform="translate(1024 960)" clip-path="url(#frameclip)"><g transform="translate(0 0) translate(-6 2) rotate(-5 128 160)"><use xlink:href="#s" width="256" height="320"/></g></g><g transform="translate(1280 960)" clip-path="url(#frameclip)"><g transform="translate(0 0) scale(-1 1) translate(-256 0) translate(-6 2) rotate(-5 128 160)"><use xlink:href="#s" width="256" height="320"/></g></g><g transform="translate(1536 960)" clip-path="url(#frameclip)"><g transform="translate(0 0) scale(-1 1) translate(-256 0) translate(-6 2) rotate(-5 128 160)"><use xlink:href="#s" width="256" height="320"/></g></g><g transform="translate(1792 960)" clip-path="url(#frameclip)"><g transform="translate(0 0) scale(-1 1) translate(-256 0) translate(-6 2) rotate(-5 128 160)"><use xlink:href="#s" width="256" height="320"/></g></g><g transform="translate(0 1280)" clip-path="url(#frameclip)"><g transform="translate(0 0) rotate(-78 128 160) translate(0 35)"><use xlink:href="#s" width="256" height="320"/></g></g><g transform="translate(256 1280)" clip-path="url(#frameclip)"><g transform="translate(0 0) rotate(78 128 160) translate(0 35)"><use xlink:href="#s" width="256" height="320"/></g></g><g transform="translate(512 1280)" clip-path="url(#frameclip)"><g transform="translate(0 0) rotate(-78 128 160) translate(0 35)"><use xlink:href="#s" width="256" height="320"/></g></g><g transform="translate(768 1280)" clip-path="url(#frameclip)"><g transform="translate(0 0) rotate(78 128 160) translate(0 35)"><use xlink:href="#s" width="256" height="320"/></g></g><g transform="translate(1024 1280)" clip-path="url(#frameclip)"><g transform="translate(0 0) rotate(-78 128 160) translate(0 35)"><use xlink:href="#s" width="256" height="320"/></g></g><g transform="translate(1280 1280)" clip-path="url(#frameclip)"><g transform="translate(0 0) scale(-1 1) translate(-256 0) rotate(78 128 160) translate(0 35)"><use xlink:href="#s" width="256" height="320"/></g></g><g transform="translate(1536 1280)" clip-path="url(#frameclip)"><g transform="translate(0 0) scale(-1 1) translate(-256 0) rotate(-78 128 160) translate(0 35)"><use xlink:href="#s" width="256" height="320"/></g></g><g transform="translate(1792 1280)" clip-path="url(#frameclip)"><g transform="translate(0 0) scale(-1 1) translate(-256 0) rotate(78 128 160) translate(0 35)"><use xlink:href="#s" width="256" height="320"/></g></g></svg>