<svg xmlns="http://www.w3.org/2000/svg" xmlns:xlink="http://www.w3.org/1999/xlink" width="3840" height="460" viewBox="0 0 3840 460"><symbol id="w" viewBox="0 0 768 460"><defs><clipPath id="frameclip"><rect width="768" height="460"/></clipPath><linearGradient id="metal" x1="0" y1="0" x2="1" y2="1"><stop stop-color="#606975"/><stop offset=".5" stop-color="#2a3038"/><stop offset="1" stop-color="#101319"/></linearGradient><filter id="glow"><feGaussianBlur stdDeviation="5" result="b"/><feMerge><feMergeNode in="b"/><feMergeNode in="SourceGraphic"/></feMerge></filter></defs><g stroke="#090b10" stroke-width="10" stroke-linejoin="round"><path d="M120 168L520 120L620 168L598 240L180 265L95 232Z" fill="url(#metal)"/><path d="M260 255L365 248L342 392L255 410L208 340Z" fill="#1b2028"/><rect x="360" y="150" width="92" height="12" rx="6" fill="#ff315f" filter="url(#glow)"/></g></symbol><g transform="translate(0 0)" clip-path="url(#frameclip)"><g transform="translate(0 0)"><use xlink:href="#w" width="768" height="460"/></g></g><g transform="translate(768 0)" clip-path="url(#frameclip)"><g transform="translate(0 0) translate(0 -10) rotate(-2 360 230)"><use xlink:href="#w" width="768" height="460"/></g></g><g transform="translate(1388 140)"><circle r="58" fill="#ff8a2a" opacity=".85" filter="url(#glow)"/><circle r="26" fill="#fff2bd"/></g><g transform="translate(1536 0)" clip-path="url(#frameclip)"><g transform="translate(0 0) translate(-18 12) rotate(3 360 230)"><use xlink:href="#w" width="768" height="460"/></g></g><g transform="translate(2304 0)" clip-path="url(#frameclip)"><g transform="translate(0 0) rotate(8 360 230)"><use xlink:href="#w" width="768" height="460"/></g></g><g transform="translate(3072 0)" clip-path="url(#frameclip)"><g transform="translate(0 0)"><use xlink:href="#w" width="768" height="460"/></g></g></svg>